<?xml version="1.0" encoding="UTF-8"?><svg xmlns="http://www.w3.org/2000/svg" xmlns:xlink="http://www.w3.org/1999/xlink" fill-opacity="1" color-rendering="auto" color-interpolation="auto" text-rendering="auto" stroke="black" stroke-linecap="square" width="497" stroke-miterlimit="10" shape-rendering="auto" stroke-opacity="1" fill="black" stroke-dasharray="none" font-weight="normal" stroke-width="1" height="732" font-family="'Dialog'" font-style="normal" stroke-linejoin="miter" font-size="12px" stroke-dashoffset="0" image-rendering="auto">
  <!--Generated by ySVG 2.5-->
  <defs id="genericDefs"/>
  <g>
    <defs id="defs1">
      <clipPath clipPathUnits="userSpaceOnUse" id="clipPath1">
        <path d="M0 0 L497 0 L497 732 L0 732 L0 0 Z"/>
      </clipPath>
      <clipPath clipPathUnits="userSpaceOnUse" id="clipPath2">
        <path d="M-10 -15 L487 -15 L487 717 L-10 717 L-10 -15 Z"/>
      </clipPath>
    </defs>
    <g fill="white" text-rendering="geometricPrecision" shape-rendering="geometricPrecision" transform="translate(10,15)" stroke="white">
      <rect x="-10" width="497" height="732" y="-15" clip-path="url(#clipPath2)" stroke="none"/>
    </g>
    <g fill="rgb(191,4,4)" text-rendering="geometricPrecision" shape-rendering="geometricPrecision" transform="matrix(1,0,0,1,10,15)" stroke="rgb(191,4,4)">
      <ellipse rx="36.0098" ry="13.7031" clip-path="url(#clipPath2)" cx="200.899" cy="13.7031" stroke="none"/>
    </g>
    <g text-rendering="geometricPrecision" stroke-miterlimit="1.45" shape-rendering="geometricPrecision" transform="matrix(1,0,0,1,10,15)" stroke-linecap="butt">
      <ellipse rx="36.0098" fill="none" ry="13.7031" clip-path="url(#clipPath2)" cx="200.899" cy="13.7031"/>
      <text x="171.8892" y="17.8633" clip-path="url(#clipPath2)" fill="white" font-family="sans-serif" stroke="none" xml:space="preserve">GameStart</text>
    </g>
    <g fill="rgb(0,158,255)" text-rendering="geometricPrecision" shape-rendering="geometricPrecision" transform="matrix(1,0,0,1,10,15)" stroke="rgb(0,158,255)">
      <ellipse rx="34.0146" ry="13.7031" clip-path="url(#clipPath2)" cx="55.3567" cy="687.7656" stroke="none"/>
    </g>
    <g text-rendering="geometricPrecision" stroke-miterlimit="1.45" shape-rendering="geometricPrecision" transform="matrix(1,0,0,1,10,15)" stroke-linecap="butt">
      <ellipse rx="34.0146" fill="none" ry="13.7031" clip-path="url(#clipPath2)" cx="55.3567" cy="687.7656"/>
      <text x="28.3421" y="691.9258" clip-path="url(#clipPath2)" fill="white" font-family="sans-serif" stroke="none" xml:space="preserve">GameEnd</text>
    </g>
    <g fill="rgb(27,140,72)" text-rendering="geometricPrecision" shape-rendering="geometricPrecision" transform="matrix(1,0,0,1,10,15)" stroke="rgb(27,140,72)">
      <ellipse rx="17.6758" ry="13.7031" clip-path="url(#clipPath2)" cx="238.3151" cy="449.1406" stroke="none"/>
    </g>
    <g text-rendering="geometricPrecision" stroke-miterlimit="1.45" shape-rendering="geometricPrecision" transform="matrix(1,0,0,1,10,15)" stroke-linecap="butt">
      <ellipse rx="17.6758" fill="none" ry="13.7031" clip-path="url(#clipPath2)" cx="238.3151" cy="449.1406"/>
      <text x="227.6393" y="453.3008" clip-path="url(#clipPath2)" fill="white" font-family="sans-serif" stroke="none" xml:space="preserve">Kan</text>
    </g>
    <g fill="rgb(27,140,72)" text-rendering="geometricPrecision" shape-rendering="geometricPrecision" transform="matrix(1,0,0,1,10,15)" stroke="rgb(27,140,72)">
      <ellipse rx="38.0137" ry="13.7031" clip-path="url(#clipPath2)" cx="205.1393" cy="507.5469" stroke="none"/>
    </g>
    <g text-rendering="geometricPrecision" stroke-miterlimit="1.45" shape-rendering="geometricPrecision" transform="matrix(1,0,0,1,10,15)" stroke-linecap="butt">
      <ellipse rx="38.0137" fill="none" ry="13.7031" clip-path="url(#clipPath2)" cx="205.1393" cy="507.5469"/>
      <text x="174.1256" y="511.707" clip-path="url(#clipPath2)" fill="white" font-family="sans-serif" stroke="none" xml:space="preserve">KanDiscard</text>
    </g>
    <g fill="rgb(27,140,72)" text-rendering="geometricPrecision" shape-rendering="geometricPrecision" transform="matrix(1,0,0,1,10,15)" stroke="rgb(27,140,72)">
      <ellipse rx="46.3633" ry="13.7031" clip-path="url(#clipPath2)" cx="269.9353" cy="268.3281" stroke="none"/>
    </g>
    <g text-rendering="geometricPrecision" stroke-miterlimit="1.45" shape-rendering="geometricPrecision" transform="matrix(1,0,0,1,10,15)" stroke-linecap="butt">
      <ellipse rx="46.3633" fill="none" ry="13.7031" clip-path="url(#clipPath2)" cx="269.9353" cy="268.3281"/>
      <text x="230.572" y="272.4883" clip-path="url(#clipPath2)" fill="white" font-family="sans-serif" stroke="none" xml:space="preserve">ConcealedKan</text>
    </g>
    <g fill="rgb(27,140,72)" text-rendering="geometricPrecision" shape-rendering="geometricPrecision" transform="matrix(1,0,0,1,10,15)" stroke="rgb(27,140,72)">
      <ellipse rx="45.3584" ry="13.7031" clip-path="url(#clipPath2)" cx="148.2135" cy="268.3281" stroke="none"/>
    </g>
    <g text-rendering="geometricPrecision" stroke-miterlimit="1.45" shape-rendering="geometricPrecision" transform="matrix(1,0,0,1,10,15)" stroke-linecap="butt">
      <ellipse rx="45.3584" fill="none" ry="13.7031" clip-path="url(#clipPath2)" cx="148.2135" cy="268.3281"/>
      <text x="109.8551" y="272.4883" clip-path="url(#clipPath2)" fill="white" font-family="sans-serif" stroke="none" xml:space="preserve">ConvertedKan</text>
    </g>
    <g fill="rgb(27,140,72)" text-rendering="geometricPrecision" shape-rendering="geometricPrecision" transform="matrix(1,0,0,1,10,15)" stroke="rgb(27,140,72)">
      <ellipse rx="42.3525" ry="13.7031" clip-path="url(#clipPath2)" cx="108.531" cy="565.9531" stroke="none"/>
    </g>
    <g text-rendering="geometricPrecision" stroke-miterlimit="1.45" shape-rendering="geometricPrecision" transform="matrix(1,0,0,1,10,15)" stroke-linecap="butt">
      <ellipse rx="42.3525" fill="none" ry="13.7031" clip-path="url(#clipPath2)" cx="108.531" cy="565.9531"/>
      <text x="73.1784" y="570.1133" clip-path="url(#clipPath2)" fill="white" font-family="sans-serif" stroke="none" xml:space="preserve">Replacement</text>
    </g>
    <g fill="rgb(0,158,255)" text-rendering="geometricPrecision" shape-rendering="geometricPrecision" transform="matrix(1,0,0,1,10,15)" stroke="rgb(0,158,255)">
      <ellipse rx="18.0068" ry="13.7031" clip-path="url(#clipPath2)" cx="233.1496" cy="565.9531" stroke="none"/>
    </g>
    <g text-rendering="geometricPrecision" stroke-miterlimit="1.45" shape-rendering="geometricPrecision" transform="matrix(1,0,0,1,10,15)" stroke-linecap="butt">
      <ellipse rx="18.0068" fill="none" ry="13.7031" clip-path="url(#clipPath2)" cx="233.1496" cy="565.9531"/>
      <text x="222.1428" y="570.1133" clip-path="url(#clipPath2)" fill="white" font-family="sans-serif" stroke="none" xml:space="preserve">Ron</text>
    </g>
    <g fill="rgb(27,140,72)" text-rendering="geometricPrecision" shape-rendering="geometricPrecision" transform="matrix(1,0,0,1,10,15)" stroke="rgb(27,140,72)">
      <ellipse rx="21.001" ry="13.7031" clip-path="url(#clipPath2)" cx="219.5748" cy="119.5156" stroke="none"/>
    </g>
    <g text-rendering="geometricPrecision" stroke-miterlimit="1.45" shape-rendering="geometricPrecision" transform="matrix(1,0,0,1,10,15)" stroke-linecap="butt">
      <ellipse rx="21.001" fill="none" ry="13.7031" clip-path="url(#clipPath2)" cx="219.5748" cy="119.5156"/>
      <text x="205.5738" y="123.6758" clip-path="url(#clipPath2)" fill="white" font-family="sans-serif" stroke="none" xml:space="preserve">Draw</text>
    </g>
    <g fill="rgb(27,140,72)" text-rendering="geometricPrecision" shape-rendering="geometricPrecision" transform="matrix(1,0,0,1,10,15)" stroke="rgb(27,140,72)">
      <ellipse rx="38.3506" ry="13.7031" clip-path="url(#clipPath2)" cx="209.0744" cy="177.9219" stroke="none"/>
    </g>
    <g text-rendering="geometricPrecision" stroke-miterlimit="1.45" shape-rendering="geometricPrecision" transform="matrix(1,0,0,1,10,15)" stroke-linecap="butt">
      <ellipse rx="38.3506" fill="none" ry="13.7031" clip-path="url(#clipPath2)" cx="209.0744" cy="177.9219"/>
      <text x="177.7238" y="182.082" clip-path="url(#clipPath2)" fill="white" font-family="sans-serif" stroke="none" xml:space="preserve">PlayerHand</text>
    </g>
    <g fill="rgb(27,140,72)" text-rendering="geometricPrecision" shape-rendering="geometricPrecision" transform="matrix(1,0,0,1,10,15)" stroke="rgb(27,140,72)">
      <ellipse rx="17.6758" ry="13.7031" clip-path="url(#clipPath2)" cx="366.673" cy="449.1406" stroke="none"/>
    </g>
    <g text-rendering="geometricPrecision" stroke-miterlimit="1.45" shape-rendering="geometricPrecision" transform="matrix(1,0,0,1,10,15)" stroke-linecap="butt">
      <ellipse rx="17.6758" fill="none" ry="13.7031" clip-path="url(#clipPath2)" cx="366.673" cy="449.1406"/>
      <text x="355.9972" y="453.3008" clip-path="url(#clipPath2)" fill="white" font-family="sans-serif" stroke="none" xml:space="preserve">Pon</text>
    </g>
    <g fill="rgb(27,140,72)" text-rendering="geometricPrecision" shape-rendering="geometricPrecision" transform="matrix(1,0,0,1,10,15)" stroke="rgb(27,140,72)">
      <ellipse rx="27.3379" ry="13.7031" clip-path="url(#clipPath2)" cx="350.0242" cy="342.7344" stroke="none"/>
    </g>
    <g text-rendering="geometricPrecision" stroke-miterlimit="1.45" shape-rendering="geometricPrecision" transform="matrix(1,0,0,1,10,15)" stroke-linecap="butt">
      <ellipse rx="27.3379" fill="none" ry="13.7031" clip-path="url(#clipPath2)" cx="350.0242" cy="342.7344"/>
      <text x="329.6863" y="346.8945" clip-path="url(#clipPath2)" fill="white" font-family="sans-serif" stroke="none" xml:space="preserve">Discard</text>
    </g>
    <g fill="rgb(27,140,72)" text-rendering="geometricPrecision" shape-rendering="geometricPrecision" transform="matrix(1,0,0,1,10,15)" stroke="rgb(27,140,72)">
      <ellipse rx="16.0029" ry="13.7031" clip-path="url(#clipPath2)" cx="301.994" cy="449.1406" stroke="none"/>
    </g>
    <g text-rendering="geometricPrecision" stroke-miterlimit="1.45" shape-rendering="geometricPrecision" transform="matrix(1,0,0,1,10,15)" stroke-linecap="butt">
      <ellipse rx="16.0029" fill="none" ry="13.7031" clip-path="url(#clipPath2)" cx="301.994" cy="449.1406"/>
      <text x="292.9911" y="453.3008" clip-path="url(#clipPath2)" fill="white" font-family="sans-serif" stroke="none" xml:space="preserve">Chi</text>
    </g>
    <g fill="rgb(27,140,72)" text-rendering="geometricPrecision" shape-rendering="geometricPrecision" transform="matrix(1,0,0,1,10,15)" stroke="rgb(27,140,72)">
      <ellipse rx="21.6689" ry="13.7031" clip-path="url(#clipPath2)" cx="368.9679" cy="268.3281" stroke="none"/>
    </g>
    <g text-rendering="geometricPrecision" stroke-miterlimit="1.45" shape-rendering="geometricPrecision" transform="matrix(1,0,0,1,10,15)" stroke-linecap="butt">
      <ellipse rx="21.6689" fill="none" ry="13.7031" clip-path="url(#clipPath2)" cx="368.9679" cy="268.3281"/>
      <text x="354.2989" y="272.4883" clip-path="url(#clipPath2)" fill="white" font-family="sans-serif" stroke="none" xml:space="preserve">Riichi</text>
    </g>
    <g fill="rgb(0,158,255)" text-rendering="geometricPrecision" shape-rendering="geometricPrecision" transform="matrix(1,0,0,1,10,15)" stroke="rgb(0,158,255)">
      <ellipse rx="28.6797" ry="13.7031" clip-path="url(#clipPath2)" cx="443.0286" cy="449.1406" stroke="none"/>
    </g>
    <g text-rendering="geometricPrecision" stroke-miterlimit="1.45" shape-rendering="geometricPrecision" transform="matrix(1,0,0,1,10,15)" stroke-linecap="butt">
      <ellipse rx="28.6797" fill="none" ry="13.7031" clip-path="url(#clipPath2)" cx="443.0286" cy="449.1406"/>
      <text x="421.3489" y="453.3008" clip-path="url(#clipPath2)" fill="white" font-family="sans-serif" stroke="none" xml:space="preserve">Exhaust</text>
    </g>
    <g fill="rgb(0,158,255)" text-rendering="geometricPrecision" shape-rendering="geometricPrecision" transform="matrix(1,0,0,1,10,15)" stroke="rgb(0,158,255)">
      <ellipse rx="35.3564" ry="13.7031" clip-path="url(#clipPath2)" cx="55.3567" cy="640.3594" stroke="none"/>
    </g>
    <g text-rendering="geometricPrecision" stroke-miterlimit="1.45" shape-rendering="geometricPrecision" transform="matrix(1,0,0,1,10,15)" stroke-linecap="butt">
      <ellipse rx="35.3564" fill="none" ry="13.7031" clip-path="url(#clipPath2)" cx="55.3567" cy="640.3594"/>
      <text x="27.0003" y="644.5195" clip-path="url(#clipPath2)" fill="white" font-family="sans-serif" stroke="none" xml:space="preserve">RoundEnd</text>
    </g>
    <g fill="rgb(0,158,255)" text-rendering="geometricPrecision" shape-rendering="geometricPrecision" transform="matrix(1,0,0,1,10,15)" stroke="rgb(0,158,255)">
      <ellipse rx="25.3369" ry="13.7031" clip-path="url(#clipPath2)" cx="46.5175" cy="268.3281" stroke="none"/>
    </g>
    <g text-rendering="geometricPrecision" stroke-miterlimit="1.45" shape-rendering="geometricPrecision" transform="matrix(1,0,0,1,10,15)" stroke-linecap="butt">
      <ellipse rx="25.3369" fill="none" ry="13.7031" clip-path="url(#clipPath2)" cx="46.5175" cy="268.3281"/>
      <text x="28.1805" y="272.4883" clip-path="url(#clipPath2)" fill="white" font-family="sans-serif" stroke="none" xml:space="preserve">Tsumo</text>
    </g>
    <g fill="rgb(191,4,4)" text-rendering="geometricPrecision" shape-rendering="geometricPrecision" transform="matrix(1,0,0,1,10,15)" stroke="rgb(191,4,4)">
      <ellipse rx="37.3516" ry="13.7031" clip-path="url(#clipPath2)" cx="200.899" cy="61.1094" stroke="none"/>
    </g>
    <g text-rendering="geometricPrecision" stroke-miterlimit="1.45" shape-rendering="geometricPrecision" transform="matrix(1,0,0,1,10,15)" stroke-linecap="butt">
      <ellipse rx="37.3516" fill="none" ry="13.7031" clip-path="url(#clipPath2)" cx="200.899" cy="61.1094"/>
      <text x="170.5474" y="65.2695" clip-path="url(#clipPath2)" fill="white" font-family="sans-serif" stroke="none" xml:space="preserve">RoundStart</text>
      <path fill="none" d="M238.3151 462.8438 L238.3151 478.3438 L230.4817 478.3438 L230.4817 485.8438" clip-path="url(#clipPath2)"/>
      <path d="M230.4817 493.8438 L235.4817 481.8438 L230.4817 484.8438 L225.4817 481.8438 Z" clip-path="url(#clipPath2)" stroke="none"/>
      <path fill="none" d="M269.9353 282.0312 L269.9353 297.5312 L205.1393 297.5312 L205.1393 485.8438" clip-path="url(#clipPath2)"/>
      <path d="M205.1393 493.8438 L210.1393 481.8438 L205.1393 484.8438 L200.1393 481.8438 Z" clip-path="url(#clipPath2)" stroke="none"/>
      <path fill="none" d="M148.2135 282.0312 L148.2135 464.6406 L179.7968 464.6406 L179.7968 485.8438" clip-path="url(#clipPath2)"/>
      <path d="M179.7968 493.8438 L184.7968 481.8438 L179.7968 484.8438 L174.7968 481.8438 Z" clip-path="url(#clipPath2)" stroke="none"/>
      <path fill="none" d="M186.1324 521.25 L186.1324 536.75 L129.7072 536.75 L129.7072 544.25" clip-path="url(#clipPath2)"/>
      <path d="M129.7072 552.25 L134.7072 540.25 L129.7072 543.25 L124.7072 540.25 Z" clip-path="url(#clipPath2)" stroke="none"/>
      <path fill="none" d="M224.1461 521.25 L224.1462 544.25" clip-path="url(#clipPath2)"/>
      <path d="M224.1462 552.25 L229.1461 540.25 L224.1462 543.25 L219.1462 540.25 Z" clip-path="url(#clipPath2)" stroke="none"/>
      <path fill="none" d="M87.3547 552.25 L87.3548 223.125 L189.8991 223.125 L189.8991 199.625" clip-path="url(#clipPath2)"/>
      <path d="M189.8991 191.625 L184.8991 203.625 L189.8991 200.625 L194.8991 203.625 Z" clip-path="url(#clipPath2)" stroke="none"/>
      <path fill="none" d="M209.0743 133.2188 L209.0744 156.2188" clip-path="url(#clipPath2)"/>
      <path d="M209.0744 164.2188 L214.0744 152.2187 L209.0744 155.2188 L204.0744 152.2188 Z" clip-path="url(#clipPath2)" stroke="none"/>
      <path fill="none" d="M215.4662 191.625 L215.4662 239.125 L269.9353 239.125 L269.9353 246.625" clip-path="url(#clipPath2)"/>
      <path d="M269.9353 254.625 L274.9353 242.625 L269.9353 245.625 L264.9353 242.625 Z" clip-path="url(#clipPath2)" stroke="none"/>
      <path fill="none" d="M202.6826 191.625 L202.6826 239.125 L148.2135 239.125 L148.2135 246.625" clip-path="url(#clipPath2)"/>
      <path d="M148.2135 254.625 L153.2135 242.625 L148.2135 245.625 L143.2135 242.625 Z" clip-path="url(#clipPath2)" stroke="none"/>
      <path fill="none" d="M228.2497 191.625 L228.2497 223.125 L331.7988 223.125 L331.799 321.0312" clip-path="url(#clipPath2)"/>
      <path d="M331.799 329.0312 L336.799 317.0312 L331.799 320.0312 L326.799 317.0312 Z" clip-path="url(#clipPath2)" stroke="none"/>
      <path fill="none" d="M357.8351 435.4375 L357.8351 364.4375" clip-path="url(#clipPath2)"/>
      <path d="M357.835 356.4375 L352.8351 368.4375 L357.8351 365.4375 L362.8351 368.4375 Z" clip-path="url(#clipPath2)" stroke="none"/>
      <path fill="none" d="M326.5917 356.4375 L326.5917 371.9375 L238.3151 371.9375 L238.3151 427.4375" clip-path="url(#clipPath2)"/>
      <path d="M238.3151 435.4375 L243.3151 423.4375 L238.3151 426.4375 L233.3151 423.4375 Z" clip-path="url(#clipPath2)" stroke="none"/>
      <path fill="none" d="M350.0242 356.4375 L350.0242 419.9375 L333.4972 419.9375 L333.4972 536.75 L242.153 536.75 L242.153 544.25" clip-path="url(#clipPath2)"/>
      <path d="M242.153 552.25 L247.153 540.25 L242.153 543.25 L237.153 540.25 Z" clip-path="url(#clipPath2)" stroke="none"/>
      <path fill="none" d="M368.2495 329.0312 L368.2495 313.5312 L406.1369 313.5312 L406.1369 148.7188 L230.0753 148.7188 L230.0753 141.2188" clip-path="url(#clipPath2)"/>
      <path d="M230.0753 133.2188 L225.0753 145.2188 L230.0753 142.2188 L235.0753 145.2188 Z" clip-path="url(#clipPath2)" stroke="none"/>
      <path fill="none" d="M365.6458 356.4375 L365.6458 387.9375 L375.5109 387.9375 L375.5109 427.4375" clip-path="url(#clipPath2)"/>
      <path d="M375.5109 435.4375 L380.5109 423.4375 L375.5109 426.4375 L370.5109 423.4375 Z" clip-path="url(#clipPath2)" stroke="none"/>
      <path fill="none" d="M334.4026 356.4375 L334.4026 387.9375 L293.9926 387.9375 L293.9926 427.4375" clip-path="url(#clipPath2)"/>
      <path d="M293.9926 435.4375 L298.9926 423.4375 L293.9926 426.4375 L288.9926 423.4375 Z" clip-path="url(#clipPath2)" stroke="none"/>
      <path fill="none" d="M309.9955 435.4375 L309.9955 403.9375 L342.2134 403.9375 L342.2134 364.4375" clip-path="url(#clipPath2)"/>
      <path d="M342.2134 356.4375 L337.2134 368.4375 L342.2134 365.4375 L347.2134 368.4375 Z" clip-path="url(#clipPath2)" stroke="none"/>
      <path fill="none" d="M241.0332 191.625 L241.0332 207.125 L368.9679 207.125 L368.9679 246.625" clip-path="url(#clipPath2)"/>
      <path d="M368.9679 254.625 L373.9679 242.625 L368.9679 245.625 L363.9679 242.625 Z" clip-path="url(#clipPath2)" stroke="none"/>
      <path fill="none" d="M368.9679 282.0312 L368.9679 297.5312 L350.0242 297.5312 L350.0242 321.0312" clip-path="url(#clipPath2)"/>
      <path d="M350.0242 329.0312 L355.0242 317.0312 L350.0242 320.0312 L345.0242 317.0312 Z" clip-path="url(#clipPath2)" stroke="none"/>
      <path fill="none" d="M373.4567 356.4375 L373.4567 371.9375 L443.0286 371.9375 L443.0286 427.4375" clip-path="url(#clipPath2)"/>
      <path d="M443.0286 435.4375 L448.0286 423.4375 L443.0286 426.4375 L438.0286 423.4375 Z" clip-path="url(#clipPath2)" stroke="none"/>
      <path fill="none" d="M233.1496 579.6562 L233.1496 595.1562 L64.1959 595.1562 L64.1959 618.6562" clip-path="url(#clipPath2)"/>
      <path d="M64.1959 626.6562 L69.1959 614.6562 L64.1959 617.6562 L59.1959 614.6562 Z" clip-path="url(#clipPath2)" stroke="none"/>
      <path fill="none" d="M443.0286 462.8438 L443.0286 611.1562 L81.8741 611.1562 L81.8741 618.6562" clip-path="url(#clipPath2)"/>
      <path d="M81.8741 626.6562 L86.8741 614.6562 L81.8741 617.6562 L76.8741 614.6562 Z" clip-path="url(#clipPath2)" stroke="none"/>
      <path fill="none" d="M55.3567 654.0625 L55.3567 666.0625" clip-path="url(#clipPath2)"/>
      <path d="M55.3567 674.0625 L60.3567 662.0625 L55.3567 665.0625 L50.3567 662.0625 Z" clip-path="url(#clipPath2)" stroke="none"/>
      <path fill="none" d="M177.1156 191.625 L177.1156 207.125 L46.5175 207.125 L46.5175 246.625" clip-path="url(#clipPath2)"/>
      <path d="M46.5175 254.625 L51.5175 242.625 L46.5175 245.625 L41.5175 242.625 Z" clip-path="url(#clipPath2)" stroke="none"/>
      <path fill="none" d="M46.5175 282.0312 L46.5176 618.6562" clip-path="url(#clipPath2)"/>
      <path d="M46.5176 626.6562 L51.5176 614.6562 L46.5176 617.6562 L41.5176 614.6562 Z" clip-path="url(#clipPath2)" stroke="none"/>
      <path fill="none" d="M200.899 27.4062 L200.899 39.4062" clip-path="url(#clipPath2)"/>
      <path d="M200.899 47.4062 L205.899 35.4062 L200.899 38.4062 L195.899 35.4062 Z" clip-path="url(#clipPath2)" stroke="none"/>
      <path fill="none" d="M28.8394 626.6562 L28.8394 581.4531 L5.6802 581.4531 L5.6802 90.3125 L182.2232 90.3125 L182.2232 82.8125" clip-path="url(#clipPath2)"/>
      <path d="M182.2232 74.8125 L177.2232 86.8125 L182.2232 83.8125 L187.2232 86.8125 Z" clip-path="url(#clipPath2)" stroke="none"/>
      <path fill="none" d="M219.5748 74.8125 L219.5748 97.8125" clip-path="url(#clipPath2)"/>
      <path d="M219.5748 105.8125 L224.5748 93.8125 L219.5748 96.8125 L214.5748 93.8125 Z" clip-path="url(#clipPath2)" stroke="none"/>
    </g>
  </g>
</svg>
